<svg width="12" height="13" viewBox="0 0 12 15" fill="none" xmlns="http://www.w3.org/2000/svg">
<path d="M1.39124 14.9878C1.1741 14.9897 0.959974 14.9368 0.768681 14.834C0.538767 14.721 0.344996 14.5459 0.209201 14.3287C0.0734064 14.1114 0.000982224 13.8605 8.85836e-05 13.6043V1.38366C-0.00199287 1.20076 0.032626 1.01929 0.101898 0.849994C0.17117 0.680699 0.273688 0.527014 0.403389 0.39803C0.53309 0.269045 0.68734 0.16738 0.857016 0.0990472C1.02669 0.0307142 1.20835 -0.00289892 1.39124 0.000195832H10.6144C10.9759 0.00626612 11.3203 0.155193 11.5723 0.414429C11.8243 0.673664 11.9635 1.02213 11.9594 1.38366V13.6427C11.9585 13.8989 11.8861 14.1498 11.7503 14.3671C11.6145 14.5844 11.4207 14.7594 11.1908 14.8725C10.9761 14.974 10.738 15.0161 10.5015 14.9945C10.265 14.9729 10.0385 14.8883 9.84576 14.7495L6.0028 12.5436L2.10603 14.7726C1.89747 14.92 1.64655 14.9956 1.39124 14.9878ZM1.39124 1.15309C1.36325 1.15498 1.33594 1.16254 1.31095 1.17529C1.28596 1.18804 1.26381 1.20573 1.24585 1.22728C1.22789 1.24883 1.21449 1.2738 1.20645 1.30068C1.19842 1.32756 1.19591 1.35579 1.19909 1.38366V13.6427C1.19584 13.6848 1.20504 13.7269 1.22554 13.7638C1.24603 13.8007 1.27693 13.8308 1.31438 13.8502C1.33909 13.8678 1.36863 13.8772 1.39893 13.8772C1.42922 13.8772 1.45877 13.8678 1.48347 13.8502L5.71842 11.4292C5.80513 11.38 5.90311 11.3541 6.0028 11.3541C6.10249 11.3541 6.20047 11.38 6.28718 11.4292L10.476 13.8195C10.5074 13.842 10.545 13.8541 10.5836 13.8541C10.6222 13.8541 10.6599 13.842 10.6912 13.8195C10.7287 13.8 10.7596 13.77 10.7801 13.7331C10.8006 13.6962 10.8098 13.6541 10.8065 13.612V1.38366C10.8097 1.35579 10.8072 1.32756 10.7991 1.30068C10.7911 1.2738 10.7777 1.24883 10.7597 1.22728C10.7418 1.20573 10.7196 1.18804 10.6947 1.17529C10.6697 1.16254 10.6423 1.15498 10.6144 1.15309H1.39124Z" fill="black"/>
</svg>
