<svg width="14" height="12" viewBox="0 0 18 15" fill="none" xmlns="http://www.w3.org/2000/svg">
<path d="M14.1568 3.23785C14.3027 3.04474 14.4486 2.80335 14.4973 2.51368H17.5135C17.8054 2.51368 18 2.32057 18 2.0309C18 1.74123 17.8054 1.54812 17.5135 1.54812H14.4973C14.4 1.11361 14.1081 0.67911 13.7189 0.389441C12.7946 -0.286454 11.5297 -0.0450627 10.8973 0.823945C10.7514 1.01706 10.6541 1.25845 10.5568 1.54812H0.486486C0.194595 1.54812 0 1.74123 0 2.0309C0 2.32057 0.194595 2.51368 0.486486 2.51368H10.5568C10.6541 2.94819 10.9459 3.38269 11.3351 3.67236C12.2108 4.34825 13.5243 4.15514 14.1568 3.23785ZM11.9189 2.89991C11.6757 2.75507 11.5297 2.51368 11.4811 2.22401C11.4324 1.93434 11.4811 1.69295 11.6757 1.45156C12.0162 0.968779 12.6973 0.872223 13.1351 1.21017C13.3784 1.355 13.5243 1.5964 13.573 1.88606C13.573 1.93434 13.573 1.98262 13.573 2.0309C13.573 2.27229 13.5243 2.4654 13.3784 2.65852C13.0378 3.1413 12.3568 3.23785 11.9189 2.89991ZM6.95676 8.74157C7.1027 8.54846 7.24865 8.30707 7.2973 8.0174H17.5135C17.8054 8.0174 18 7.82428 18 7.53461C18 7.24494 17.8054 7.05183 17.5135 7.05183H7.2973C7.2 6.61733 6.90811 6.18282 6.51892 5.89315C5.59459 5.21726 4.32973 5.45865 3.6973 6.32766C3.55135 6.52077 3.45405 6.76216 3.35676 7.05183H0.486486C0.194595 7.05183 0 7.24494 0 7.53461C0 7.82428 0.194595 8.0174 0.486486 8.0174H3.35676C3.45405 8.4519 3.74595 8.8864 4.13514 9.17607C5.01081 9.80369 6.27568 9.61058 6.95676 8.74157ZM4.71892 8.35534C4.47568 8.21051 4.32973 7.96912 4.28108 7.67945C4.23243 7.38978 4.28108 7.14839 4.47568 6.907C4.81622 6.42422 5.4973 6.32766 5.93514 6.66561C6.17838 6.81044 6.32432 7.05183 6.37297 7.3415C6.37297 7.38978 6.37297 7.43806 6.37297 7.48633C6.37297 7.72773 6.32432 7.92084 6.17838 8.11395C5.83784 8.59673 5.15676 8.69329 4.71892 8.35534ZM12.2595 14.197C12.4054 14.0039 12.5514 13.7625 12.6 13.4728H17.5135C17.8054 13.4728 18 13.2797 18 12.99C18 12.7004 17.8054 12.5073 17.5135 12.5073H12.6C12.5027 12.0728 12.2108 11.6383 11.8216 11.3486C11.3838 11.0106 10.8486 10.9141 10.3135 10.9624C9.77838 11.0589 9.29189 11.3486 9 11.7831C8.85405 12.0245 8.75676 12.2176 8.65946 12.5073H0.486486C0.194595 12.5073 0 12.7004 0 12.99C0 13.2797 0.194595 13.4728 0.486486 13.4728H8.70811C8.80541 13.9073 9.0973 14.3418 9.48649 14.6315C10.3622 15.2591 11.627 15.066 12.2595 14.197ZM10.0216 13.8591C9.77838 13.6659 9.63243 13.4246 9.58378 13.1349C9.58378 13.0866 9.58378 13.0383 9.58378 13.0383C9.58378 12.9901 9.58378 12.9418 9.58378 12.9418C9.58378 12.7487 9.68108 12.6038 9.77838 12.459C9.92432 12.2176 10.1676 12.0728 10.4595 12.0245C10.7514 11.9762 10.9946 12.0728 11.2378 12.2176C11.4811 12.3624 11.627 12.6038 11.6757 12.8935C11.6757 12.9418 11.6757 12.9901 11.6757 13.0383C11.6757 13.2797 11.627 13.4728 11.4811 13.6659C11.1405 14.1004 10.5081 14.197 10.0216 13.8591Z" fill="#2A2A2A"/>
</svg>
