<svg width="15" height="15" viewBox="0 0 15 15" fill="none" xmlns="http://www.w3.org/2000/svg">
<path d="M8.52885 2.01923C8.52885 2.06258 8.51162 2.10415 8.48096 2.13481C8.45031 2.16547 8.40873 2.18269 8.36538 2.18269H6.63462C6.59127 2.18269 6.54969 2.16547 6.51903 2.13481C6.48838 2.10415 6.47115 2.06258 6.47115 2.01923V0.288462C6.47115 0.245115 6.48838 0.203541 6.51903 0.172881C6.54969 0.142221 6.59127 0.125 6.63462 0.125H8.36538C8.40873 0.125 8.45031 0.142222 8.48096 0.17288L8.56935 0.0844926L8.48096 0.172881C8.51162 0.203541 8.52885 0.245115 8.52885 0.288462V2.01923ZM0.172881 8.48096L0.0844926 8.56935L0.17288 8.48096C0.142222 8.45031 0.125 8.40873 0.125 8.36538V6.63462C0.125 6.59127 0.142221 6.54969 0.172881 6.51903C0.203541 6.48838 0.245115 6.47115 0.288462 6.47115H2.01923C2.06258 6.47115 2.10415 6.48838 2.13481 6.51903C2.16547 6.54969 2.18269 6.59127 2.18269 6.63462V8.36538C2.18269 8.40873 2.16547 8.45031 2.13481 8.48096C2.10415 8.51162 2.06258 8.52885 2.01923 8.52885H0.288462C0.245115 8.52885 0.203541 8.51162 0.172881 8.48096ZM14.8271 6.51903C14.8578 6.54969 14.875 6.59127 14.875 6.63462V8.36538C14.875 8.40873 14.8578 8.45031 14.8271 8.48096C14.7965 8.51162 14.7549 8.52885 14.7115 8.52885H12.9808C12.9374 8.52885 12.8958 8.51162 12.8652 8.48096C12.8345 8.45031 12.8173 8.40873 12.8173 8.36538V6.63462C12.8173 6.59127 12.8345 6.54969 12.8652 6.51903C12.8958 6.48838 12.9374 6.47115 12.9808 6.47115H14.7115C14.7549 6.47115 14.7965 6.48838 14.8271 6.51903ZM8.48096 12.8652C8.51162 12.8958 8.52885 12.9374 8.52885 12.9808V14.7115C8.52885 14.7549 8.51162 14.7965 8.48096 14.8271C8.45031 14.8578 8.40873 14.875 8.36538 14.875H6.63462C6.59127 14.875 6.54969 14.8578 6.51903 14.8271C6.48838 14.7965 6.47115 14.7549 6.47115 14.7115V12.9808C6.47115 12.9374 6.48838 12.8958 6.51903 12.8652C6.54969 12.8345 6.59127 12.8173 6.63462 12.8173H8.36538C8.40873 12.8173 8.45031 12.8345 8.48096 12.8652Z" fill="black" stroke="white" stroke-width="0.25"/>
<path d="M5.19531 5.19276C5.19531 5.11625 5.22571 5.04289 5.27981 4.98879C5.3339 4.93469 5.40727 4.9043 5.48377 4.9043H9.52224C9.59874 4.9043 9.67211 4.93469 9.7262 4.98879C9.7803 5.04289 9.8107 5.11625 9.8107 5.19276C9.8107 5.26926 9.7803 5.34263 9.7262 5.39673C9.67211 5.45082 9.59874 5.48122 9.52224 5.48122H5.48377C5.40727 5.48122 5.3339 5.45082 5.27981 5.39673C5.22571 5.34263 5.19531 5.26926 5.19531 5.19276ZM9.52224 6.05814H5.48377C5.40727 6.05814 5.3339 6.08854 5.27981 6.14264C5.22571 6.19673 5.19531 6.2701 5.19531 6.3466C5.19531 6.42311 5.22571 6.49648 5.27981 6.55057C5.3339 6.60467 5.40727 6.63507 5.48377 6.63507H9.52224C9.59874 6.63507 9.67211 6.60467 9.7262 6.55057C9.7803 6.49648 9.8107 6.42311 9.8107 6.3466C9.8107 6.2701 9.7803 6.19673 9.7262 6.14264C9.67211 6.08854 9.59874 6.05814 9.52224 6.05814ZM9.52224 7.21199H5.48377C5.40727 7.21199 5.3339 7.24238 5.27981 7.29648C5.22571 7.35058 5.19531 7.42395 5.19531 7.50045C5.19531 7.57696 5.22571 7.65032 5.27981 7.70442C5.3339 7.75852 5.40727 7.78891 5.48377 7.78891H9.52224C9.59874 7.78891 9.67211 7.75852 9.7262 7.70442C9.7803 7.65032 9.8107 7.57696 9.8107 7.50045C9.8107 7.42395 9.7803 7.35058 9.7262 7.29648C9.67211 7.24238 9.59874 7.21199 9.52224 7.21199ZM9.52224 8.36584H5.48377C5.40727 8.36584 5.3339 8.39623 5.27981 8.45033C5.22571 8.50443 5.19531 8.57779 5.19531 8.6543C5.19531 8.7308 5.22571 8.80417 5.27981 8.85827C5.3339 8.91236 5.40727 8.94276 5.48377 8.94276H9.52224C9.59874 8.94276 9.67211 8.91236 9.7262 8.85827C9.7803 8.80417 9.8107 8.7308 9.8107 8.6543C9.8107 8.57779 9.7803 8.50443 9.7262 8.45033C9.67211 8.39623 9.59874 8.36584 9.52224 8.36584ZM9.52224 9.51968H5.48377C5.40727 9.51968 5.3339 9.55008 5.27981 9.60417C5.22571 9.65827 5.19531 9.73164 5.19531 9.80814C5.19531 9.88465 5.22571 9.95801 5.27981 10.0121C5.3339 10.0662 5.40727 10.0966 5.48377 10.0966H9.52224C9.59874 10.0966 9.67211 10.0662 9.7262 10.0121C9.7803 9.95801 9.8107 9.88465 9.8107 9.80814C9.8107 9.73164 9.7803 9.65827 9.7262 9.60417C9.67211 9.55008 9.59874 9.51968 9.52224 9.51968Z" fill="black"/>
<path d="M4.03223 2.30696C5.05941 1.62063 6.26703 1.2543 7.50241 1.2543C9.15899 1.2543 10.7477 1.91238 11.9191 3.08376C13.0905 4.25514 13.7486 5.84387 13.7486 7.50045C13.7486 8.73582 13.3822 9.94345 12.6959 10.9706C12.0096 11.9978 11.034 12.7984 9.8927 13.2711C8.75136 13.7439 7.49548 13.8676 6.28384 13.6266C5.07221 13.3856 3.95925 12.7907 3.08571 11.9171C2.21217 11.0436 1.61728 9.93065 1.37627 8.71902C1.13526 7.50738 1.25896 6.25149 1.73171 5.11015C2.20447 3.96882 3.00506 2.9933 4.03223 2.30696ZM4.56215 11.9008C5.43247 12.4824 6.45569 12.7928 7.50241 12.7928C8.90601 12.7928 10.2521 12.2352 11.2446 11.2427C12.2371 10.2502 12.7947 8.90406 12.7947 7.50045C12.7947 6.45373 12.4843 5.43051 11.9028 4.5602C11.3213 3.68988 10.4947 3.01156 9.52769 2.611C8.56064 2.21044 7.49653 2.10563 6.46993 2.30983C5.44332 2.51404 4.50032 3.01808 3.76017 3.75822C3.02003 4.49836 2.51599 5.44136 2.31179 6.46797C2.10758 7.49458 2.21239 8.55869 2.61295 9.52573C3.01352 10.4928 3.69184 11.3193 4.56215 11.9008Z" fill="black" stroke="white" stroke-width="0.2"/>
</svg>
