<svg width="12" height="14" viewBox="0 0 15 18" fill="none" xmlns="http://www.w3.org/2000/svg">
<path d="M5.99934 17.9997H5.99821C5.8422 17.9994 5.70231 17.9019 5.64756 17.7556L5.45629 17.2418C4.33457 14.2513 2.98521 11.8053 1.33094 9.76442C0.432368 8.65432 -0.0394222 7.25471 0.00258137 5.82321C0.0914639 2.70632 2.60118 0.150859 5.71581 0.00647223C7.37345 -0.0689091 8.94446 0.51614 10.1419 1.65886C11.3398 2.80271 11.9998 4.34371 11.9998 5.99873C11.9998 7.27496 11.6042 8.49231 10.8556 9.5199L10.7832 9.61966C10.7015 9.73179 10.6205 9.84242 10.5443 9.95568C10.4716 10.0633 10.3471 10.1301 10.2188 10.1203C9.96079 10.1106 9.70615 10.1338 9.4575 10.1905C9.05959 10.2801 8.69394 10.4459 8.36991 10.6829C8.32116 10.7174 8.27728 10.7523 8.23677 10.7864C8.14902 10.8561 8.06989 10.9251 7.9975 10.9975C7.6806 11.3114 7.43571 11.7003 7.28757 12.1237C7.13756 12.5442 7.08693 13.0043 7.14056 13.4559C7.18594 13.8721 7.31082 14.258 7.51259 14.6061C7.57522 14.7137 7.58009 14.8457 7.52534 14.9579C7.16306 15.7049 6.83603 16.4662 6.55288 17.2212L6.34999 17.7582C6.29486 17.903 6.15535 17.9997 5.99934 17.9997ZM6.00384 0.749785C5.91945 0.749785 5.83545 0.75166 5.75069 0.755785C3.02534 0.881796 0.830276 3.11736 0.75302 5.84459C0.715891 7.09719 1.12843 8.3213 1.91449 9.29188C3.5425 11.3009 4.88212 13.6839 6.00121 16.5652C6.23261 15.9772 6.4895 15.3861 6.7674 14.8037C6.56938 14.4126 6.4445 13.9884 6.39537 13.5402C6.32861 12.9781 6.39237 12.4001 6.57988 11.8736C6.7644 11.3456 7.0723 10.8576 7.46833 10.4654C7.55947 10.3742 7.66073 10.2857 7.76161 10.2058C7.80961 10.1653 7.87037 10.1173 7.9315 10.0734C8.33428 9.77905 8.7937 9.57128 9.29174 9.45839C9.53663 9.40326 9.78715 9.37251 10.0388 9.36876C10.0842 9.305 10.1303 9.24162 10.1764 9.17787L10.2484 9.07886C10.9032 8.18029 11.2494 7.1152 11.2494 5.99873C11.2494 4.55073 10.6722 3.20212 9.62364 2.20153C8.63768 1.25983 7.36033 0.749785 6.00384 0.749785Z" fill="black"/>
<path d="M5.99944 7.87425C4.75883 7.87425 3.75 6.86504 3.75 5.62444C3.75 4.38383 4.75883 3.375 5.99944 3.375C7.24004 3.375 8.24925 4.38383 8.24925 5.62444C8.24925 6.86504 7.24004 7.87425 5.99944 7.87425ZM5.99944 4.12506C5.17287 4.12506 4.50006 4.79787 4.50006 5.62444C4.50006 6.45138 5.17287 7.12419 5.99944 7.12419C6.82638 7.12419 7.49919 6.45138 7.49919 5.62444C7.49919 4.79787 6.82638 4.12506 5.99944 4.12506Z" fill="black"/>
<path d="M10.1255 16.8688C9.55099 16.8688 8.97981 16.7371 8.46265 16.4799C8.09324 16.2995 7.75834 16.0587 7.47031 15.7662C7.36755 15.6638 7.26667 15.5502 7.15566 15.411C7.10128 15.3432 7.0514 15.2708 7.0064 15.1988C6.96402 15.135 6.91452 15.0611 6.86914 14.9824C6.61449 14.5432 6.45698 14.0583 6.40072 13.5411C6.33397 12.979 6.39772 12.4014 6.58524 11.8745C6.76975 11.3464 7.07765 10.8585 7.47369 10.4662C7.56482 10.3751 7.66608 10.2866 7.76696 10.2067C7.81497 10.1662 7.87572 10.1182 7.93685 10.0743C8.33964 9.77994 8.79905 9.57217 9.29709 9.45928C9.60949 9.38878 9.93127 9.35953 10.2534 9.3719C10.5009 9.38053 10.741 9.41128 10.9649 9.46378C11.6497 9.61867 12.276 9.9667 12.7736 10.4689C13.4821 11.1751 13.8729 12.1164 13.8729 13.1181C13.8729 14.1198 13.4821 15.0611 12.7721 15.7684C12.2658 16.2751 11.6309 16.6246 10.936 16.7803C10.669 16.8395 10.3967 16.8688 10.1255 16.8688ZM10.1087 10.1186C9.89039 10.1186 9.674 10.1426 9.46248 10.1906C9.06457 10.2802 8.69892 10.446 8.37489 10.683C8.32613 10.7175 8.28226 10.7524 8.24175 10.7865C8.15399 10.8563 8.07486 10.9253 8.00248 10.9977C7.68558 11.3116 7.44068 11.7005 7.29255 12.1239C7.14253 12.5443 7.09191 13.0045 7.14554 13.456C7.19091 13.8723 7.3158 14.2582 7.51757 14.6062C7.55507 14.6703 7.59557 14.7311 7.63608 14.7919C7.67283 14.85 7.70546 14.8976 7.74109 14.9426C7.82209 15.0443 7.90647 15.1425 8.00136 15.237C8.23238 15.4714 8.49827 15.6627 8.7938 15.8071C9.40398 16.1112 10.1057 16.1964 10.7717 16.0482C11.3271 15.9241 11.8361 15.6436 12.2415 15.2378L12.2418 15.2374C12.8093 14.6715 13.122 13.9188 13.122 13.1181C13.122 12.3166 12.8093 11.564 12.2418 10.9984C11.8432 10.5964 11.3436 10.3189 10.7965 10.1947C10.6168 10.1531 10.4256 10.1283 10.2245 10.1212C10.1863 10.1193 10.1477 10.1186 10.1087 10.1186Z" fill="black"/>
<path d="M14.6291 18.0002C14.5331 18.0002 14.4371 17.9635 14.364 17.8904L12.2428 15.7692C12.0962 15.6225 12.0962 15.3855 12.2428 15.2389C12.3894 15.0922 12.6264 15.0922 12.7731 15.2389L14.8943 17.3601C15.0409 17.5067 15.0409 17.7437 14.8943 17.8904C14.8211 17.9635 14.7251 18.0002 14.6291 18.0002Z" fill="black"/>
</svg>
