<svg width="28" height="28" viewBox="0 0 28 28" fill="none" xmlns="http://www.w3.org/2000/svg">
<path d="M25.6666 13.1252H23.2866C22.8666 8.68016 19.3199 5.12183 14.8749 4.7135V2.3335C14.8749 1.85516 14.4783 1.4585 13.9999 1.4585C13.5216 1.4585 13.1249 1.85516 13.1249 2.3335V4.7135C8.67992 5.1335 5.12159 8.68016 4.71325 13.1252H2.33325C1.85492 13.1252 1.45825 13.5218 1.45825 14.0002C1.45825 14.4785 1.85492 14.8752 2.33325 14.8752H4.71325C5.13325 19.3202 8.67992 22.8785 13.1249 23.2868V25.6668C13.1249 26.1452 13.5216 26.5418 13.9999 26.5418C14.4783 26.5418 14.8749 26.1452 14.8749 25.6668V23.2868C19.3199 22.8668 22.8783 19.3202 23.2866 14.8752H25.6666C26.1449 14.8752 26.5416 14.4785 26.5416 14.0002C26.5416 13.5218 26.1449 13.1252 25.6666 13.1252ZM13.9999 17.6402C11.9933 17.6402 10.3599 16.0068 10.3599 14.0002C10.3599 11.9935 11.9933 10.3602 13.9999 10.3602C16.0066 10.3602 17.6399 11.9935 17.6399 14.0002C17.6399 16.0068 16.0066 17.6402 13.9999 17.6402Z" fill="#BED62F"/>
</svg>
