<svg width="12" height="12" viewBox="0 0 12 12" fill="none" xmlns="http://www.w3.org/2000/svg">
<path fill-rule="evenodd" clip-rule="evenodd" d="M0.639611 6C0.639611 3.044 3.04485 0.639152 6.00024 0.639152C7.14953 0.639152 8.2473 1.00061 9.15939 1.66897L8.40136 1.67442C8.22476 1.67588 8.08198 1.82 8.08416 1.99636C8.08513 2.17224 8.22791 2.31358 8.40354 2.31358C8.40451 2.31358 8.40548 2.31358 8.40633 2.31358L10.0689 2.30097C10.1641 2.30024 10.2543 2.25673 10.3144 2.18194C10.3747 2.10739 10.3989 2.00982 10.3785 1.91612L10.0389 0.288606C10.0029 0.115758 9.83318 0.00496969 9.66034 0.0412121C9.4875 0.0774545 9.37695 0.246667 9.41295 0.419515L9.5721 1.17879C8.54317 0.414061 7.3008 0 6.00024 0C4.39776 0 2.89152 0.624242 1.75775 1.75733C0.624217 2.89067 0 4.39745 0 6C0 6.94436 0.213567 7.84848 0.634883 8.68752C0.691245 8.79927 0.803725 8.86388 0.921054 8.86388C0.968688 8.86388 1.01814 8.85297 1.06384 8.82982C1.22201 8.75079 1.28516 8.55879 1.20662 8.40109C0.830027 7.65176 0.639611 6.84376 0.639611 6ZM12 6.0777C11.9801 7.65127 11.358 9.12764 10.2427 10.2427C9.10993 11.376 7.60272 12 6.00024 12C4.69872 12 3.45635 11.5862 2.42863 10.8217L2.58777 11.5807C2.62377 11.7533 2.51299 11.9225 2.34015 11.9588C2.31785 11.9635 2.29663 11.9657 2.27433 11.9657C2.12658 11.9657 1.99386 11.8622 1.96162 11.7114L1.62187 10.084C1.60272 9.99006 1.62587 9.89249 1.68599 9.81794C1.74611 9.74339 1.83629 9.69952 1.93241 9.69915L3.59525 9.68643C3.59525 9.68643 3.59622 9.68643 3.59719 9.68643C3.77282 9.68643 3.91536 9.828 3.91657 10.0036C3.91851 10.18 3.77573 10.3242 3.59913 10.3256L2.84013 10.3313C3.75245 10.9996 4.85023 11.3611 6.00024 11.3611C7.43182 11.3611 8.77807 10.8033 9.79124 9.79079C10.8038 8.77818 11.3609 7.432 11.3609 6C11.3609 5.15624 11.1706 4.34848 10.7941 3.59915C10.7156 3.44145 10.7794 3.24921 10.9366 3.17018C11.0941 3.09091 11.2861 3.15479 11.3656 3.31248C11.7754 4.12848 11.9887 5.00667 12 5.92303V6.0777Z" fill="white"/>
</svg>
