<svg width="12" height="12" viewBox="0 0 15 15" fill="none" xmlns="http://www.w3.org/2000/svg">
<path d="M3.5 8.5C3.5965 8.5 3.6935 8.472 3.7775 8.416C3.909 8.3285 7 6.236 7 3.5C7 1.57 5.4295 0 3.5 0C1.5705 0 0 1.57 0 3.5C0 6.236 3.0915 8.3285 3.2225 8.416C3.3065 8.472 3.403 8.5 3.5 8.5ZM1 3.5C1 2.1215 2.1215 1 3.5 1C4.8785 1 6 2.1215 6 3.5C6 5.2775 4.2035 6.8375 3.5 7.3805C2.7965 6.8375 1 5.2775 1 3.5Z" fill="black"/>
<path d="M5 3.5C5 2.673 4.327 2 3.5 2C2.673 2 2 2.673 2 3.5C2 4.327 2.673 5 3.5 5C4.327 5 5 4.327 5 3.5ZM3 3.5C3 3.2245 3.224 3 3.5 3C3.776 3 4 3.2245 4 3.5C4 3.7755 3.776 4 3.5 4C3.224 4 3 3.7755 3 3.5Z" fill="black"/>
<path d="M13 6.5V10.5C13 10.776 13.2235 11 13.5 11C13.7765 11 14 10.776 14 10.5V6.5C14 4.8455 12.6545 3.5 11 3.5C9.3455 3.5 8 4.8455 8 6.5V12C8 13.103 7.103 14 6 14C4.897 14 4 13.103 4 12V10C4 9.724 3.7765 9.5 3.5 9.5C3.2235 9.5 3 9.724 3 10V12C3 13.6545 4.3455 15 6 15C7.6545 15 9 13.6545 9 12V6.5C9 5.397 9.897 4.5 11 4.5C12.103 4.5 13 5.397 13 6.5Z" fill="black"/>
<path d="M13.5 12C12.673 12 12 12.673 12 13.5C12 14.327 12.673 15 13.5 15C14.327 15 15 14.327 15 13.5C15 12.673 14.327 12 13.5 12ZM13.5 14C13.224 14 13 13.7755 13 13.5C13 13.2245 13.224 13 13.5 13C13.776 13 14 13.2245 14 13.5C14 13.7755 13.776 14 13.5 14Z" fill="black"/>
</svg>
