<svg width="24" height="24" viewBox="0 0 22 23" fill="none" xmlns="http://www.w3.org/2000/svg">
<path d="M6.75 6.5H15.25V18L10.75 15.5L6.75 18V6.5Z" fill="#292D32"/>
<path d="M13.75 22.25H7.75C2.32 22.25 0 19.93 0 14.5V8.5C0 3.07 2.32 0.75 7.75 0.75H13.75C19.18 0.75 21.5 3.07 21.5 8.5V14.5C21.5 19.93 19.18 22.25 13.75 22.25ZM7.75 2.25C3.14 2.25 1.5 3.89 1.5 8.5V14.5C1.5 19.11 3.14 20.75 7.75 20.75H13.75C18.36 20.75 20 19.11 20 14.5V8.5C20 3.89 18.36 2.25 13.75 2.25H7.75Z" fill="#292D32"/>
<path d="M6.9133 18.4894C6.73173 18.4911 6.55269 18.4452 6.39274 18.3562C6.20049 18.2582 6.03847 18.1065 5.92493 17.9182C5.81138 17.7299 5.75082 17.5124 5.75007 17.2904V6.69917C5.74833 6.54066 5.77728 6.38338 5.8352 6.23666C5.89312 6.08994 5.97885 5.95675 6.0873 5.84496C6.19575 5.73317 6.32472 5.64506 6.4666 5.58584C6.60848 5.52662 6.76037 5.49749 6.9133 5.50017H14.6253C14.9275 5.50543 15.2155 5.6345 15.4263 5.85917C15.637 6.08384 15.7534 6.38584 15.7499 6.69917V17.3237C15.7492 17.5457 15.6886 17.7632 15.5751 17.9515C15.4615 18.1398 15.2995 18.2915 15.1073 18.3895C14.9277 18.4774 14.7287 18.514 14.5309 18.4952C14.3331 18.4765 14.1438 18.4032 13.9826 18.2829L10.7693 16.3711L7.51097 18.3029C7.33658 18.4307 7.12678 18.4962 6.9133 18.4894ZM6.9133 6.49934C6.88989 6.50098 6.86705 6.50753 6.84616 6.51858C6.82526 6.52963 6.80675 6.54496 6.79173 6.56364C6.77671 6.58232 6.7655 6.60396 6.75878 6.62726C6.75206 6.65055 6.74997 6.67502 6.75263 6.69917V17.3237C6.74991 17.3602 6.7576 17.3967 6.77474 17.4286C6.79188 17.4606 6.81772 17.4867 6.84903 17.5035C6.86968 17.5187 6.89439 17.5269 6.91972 17.5269C6.94506 17.5269 6.96976 17.5187 6.99042 17.5035L10.5315 15.4053C10.604 15.3627 10.6859 15.3403 10.7693 15.3403C10.8526 15.3403 10.9346 15.3627 11.0071 15.4053L14.5096 17.4769C14.5358 17.4964 14.5673 17.5069 14.5996 17.5069C14.6318 17.5069 14.6633 17.4964 14.6895 17.4769C14.7208 17.46 14.7467 17.434 14.7638 17.402C14.781 17.37 14.7886 17.3335 14.7859 17.297V6.69917C14.7886 6.67502 14.7865 6.65055 14.7798 6.62726C14.7731 6.60396 14.7618 6.58232 14.7468 6.56364C14.7318 6.54496 14.7133 6.52963 14.6924 6.51858C14.6715 6.50753 14.6487 6.50098 14.6253 6.49934H6.9133Z" fill="#292D32"/>
</svg>
